<?xml version="1.0" ?><svg data-name="Layer 1" id="Layer_1" viewBox="0 0 50 40.88" xmlns="http://www.w3.org/2000/svg"><defs><style>.cls-1{fill:#a6b1b7;}</style></defs><title/><path class="cls-1" d="M31.68,16.14L28.29,22a11.77,11.77,0,0,0-1.76-.15c-0.31,0-.61,0-0.91.06l-3.34-5.74L12.08,22.07l3.29,5.66h-13A2.36,2.36,0,0,0,0,30.09v13a2.36,2.36,0,0,0,2.36,2.36H26l0.22,0,0.33,0a11.78,11.78,0,0,0,11-15.95l4.31-7.42ZM16.19,21.32l3.4-2a2,2,0,0,1,2.69.71l1.25,2.16A11.8,11.8,0,0,0,17,26.66L15.48,24A2,2,0,0,1,16.19,21.32ZM15,37.17a0.59,0.59,0,0,1-.59.59H6.22a0.59,0.59,0,0,1,0-1.18h8.15A0.59,0.59,0,0,1,15,37.17ZM1.77,31.27A1.77,1.77,0,0,1,3.54,29.5h6a0.59,0.59,0,1,1,0,1.18h-6a0.59,0.59,0,0,0-.59.59v1a0.59,0.59,0,1,1-1.18,0v-1ZM2.36,43.08V39.53H16.3a11.85,11.85,0,0,0,3.16,3.54H2.36Zm24.17,0A9.45,9.45,0,1,1,36,33.63,9.46,9.46,0,0,1,26.53,43.08Zm10-15.7a11.82,11.82,0,0,0-6.24-4.93l1.39-2.39a2,2,0,0,1,2.69-.71l3.4,2A2,2,0,0,1,38.48,24Z" transform="translate(0 -4.56)"/><path class="cls-1" d="M46.91,17.34l-1.7-1,0.63-1.09L35.63,9.34,35,10.42l-1.7-1a1,1,0,0,0-1,1.7L45.92,19A1,1,0,0,0,46.91,17.34Z" transform="translate(0 -4.56)"/><path class="cls-1" d="M44.93,20.74l-1.7-1,0.63-1.09L33.66,12.74,33,13.83l-1.7-1a1,1,0,1,0-1,1.7l13.61,7.91A1,1,0,0,0,44.93,20.74Z" transform="translate(0 -4.56)"/><path class="cls-1" d="M49,11.75L37.11,4.83a2,2,0,0,0-2,3.4L47,15.15A2,2,0,1,0,49,11.75Z" transform="translate(0 -4.56)"/><path class="cls-1" d="M36.55,22.44L34,21a0.49,0.49,0,1,0-.49.85l2.55,1.48A0.49,0.49,0,1,0,36.55,22.44Z" transform="translate(0 -4.56)"/><path class="cls-1" d="M6.92,15.15L18.82,8.23a2,2,0,0,0-2-3.4L4.94,11.75A2,2,0,1,0,6.92,15.15Z" transform="translate(0 -4.56)"/><path class="cls-1" d="M17.9,23.29l2.55-1.48A0.49,0.49,0,1,0,20,21l-2.55,1.48A0.49,0.49,0,1,0,17.9,23.29Z" transform="translate(0 -4.56)"/><path class="cls-1" d="M18.33,9.34L8.12,15.27l0.63,1.09-1.7,1A1,1,0,0,0,8,19l13.61-7.91a1,1,0,0,0-1-1.7l-1.7,1Z" transform="translate(0 -4.56)"/><path class="cls-1" d="M20.3,12.74L10.1,18.67l0.63,1.09-1.7,1a1,1,0,1,0,1,1.7l13.61-7.91a1,1,0,1,0-1-1.7l-1.7,1Z" transform="translate(0 -4.56)"/><path class="cls-1" d="M29.87,28.76A5.9,5.9,0,1,0,31.4,37,5.9,5.9,0,0,0,29.87,28.76Zm-7.07,5a1.18,1.18,0,1,1,1.47-.8A1.18,1.18,0,0,1,22.8,33.77Zm2.7,3.45a1.18,1.18,0,1,1-.31-1.64A1.18,1.18,0,0,1,25.5,37.22Zm1-6a1.18,1.18,0,1,1,1.18-1.18A1.18,1.18,0,0,1,26.53,31.27Zm2.67,6.26a1.18,1.18,0,1,1,.31-1.64A1.18,1.18,0,0,1,29.2,37.53Zm1.86-5.22a1.18,1.18,0,1,1-1.46-.8A1.18,1.18,0,0,1,31.06,32.3Z" transform="translate(0 -4.56)"/></svg>