<?xml version="1.0" ?><svg data-name="Layer 1" id="Layer_1" viewBox="0 0 50 50" xmlns="http://www.w3.org/2000/svg"><defs><style>.cls-1{fill:#a6b1b7;}</style></defs><title/><path class="cls-1" d="M47.83,19.08l-1.52-.57a22.16,22.16,0,0,0-1.65-4L45.33,13a3.33,3.33,0,0,0-.67-3.74l-4-4A3.33,3.33,0,0,0,37,4.67l-1.46.67a22,22,0,0,0-4-1.67l-0.56-1.5A3.33,3.33,0,0,0,27.8,0H22.2a3.33,3.33,0,0,0-3.12,2.17l-0.56,1.5a22,22,0,0,0-4,1.67L13,4.67a3.33,3.33,0,0,0-3.74.67l-4,4A3.33,3.33,0,0,0,4.67,13l0.67,1.47a22.06,22.06,0,0,0-1.65,4l-1.52.56A3.33,3.33,0,0,0,0,22.2V27.8a3.33,3.33,0,0,0,2.17,3.12l1.52,0.57a22,22,0,0,0,1.65,4L4.67,37a3.33,3.33,0,0,0,.67,3.75l4,4a3.33,3.33,0,0,0,3.74.67l1.46-.67a21.93,21.93,0,0,0,4,1.67l0.56,1.5A3.33,3.33,0,0,0,22.2,50H27.8a3.33,3.33,0,0,0,3.12-2.17l0.56-1.5a22,22,0,0,0,4-1.67L37,45.33a3.33,3.33,0,0,0,3.75-.67l4-4A3.33,3.33,0,0,0,45.33,37l-0.67-1.47a22.13,22.13,0,0,0,1.65-4l1.52-.57A3.33,3.33,0,0,0,50,27.8V22.2A3.33,3.33,0,0,0,47.83,19.08ZM46.67,25v2.8L43.53,29A18.83,18.83,0,0,1,40.9,35.3l1.39,3-2,2-2,2-3-1.39A18.83,18.83,0,0,1,29,43.53L27.8,46.67H22.2L21,43.53A18.83,18.83,0,0,1,14.7,40.9l-3,1.39-2-2-2-2,1.39-3A18.83,18.83,0,0,1,6.47,29L3.33,27.8V22.2L6.47,21A18.84,18.84,0,0,1,9.1,14.7l-1.39-3,2-2,2-2,3,1.39A18.84,18.84,0,0,1,21,6.47L22.2,3.33H27.8L29,6.47A18.83,18.83,0,0,1,35.3,9.1l3-1.39,2,2,2,2-1.39,3A18.83,18.83,0,0,1,43.53,21l3.14,1.17V25Z"/><path class="cls-1" d="M35,15a14.17,14.17,0,1,0,0,20A14.17,14.17,0,0,0,35,15ZM32.66,32.66a10.83,10.83,0,1,1,0-15.32A10.83,10.83,0,0,1,32.66,32.66Z"/></svg>