<?xml version="1.0" ?><svg data-name="Layer 1" id="Layer_1" viewBox="0 0 50.01 50" xmlns="http://www.w3.org/2000/svg"><defs><style>.cls-1{fill:#a6b1b7;}</style></defs><title/><path class="cls-1" d="M50,4a2.92,2.92,0,0,0-.86-2.08L47.46,0.24a0.83,0.83,0,0,0-1.18,1.18L48,3.11A1.27,1.27,0,0,1,48,4.9L45.82,7.05l-0.67-.67,1.53-1.53a1.08,1.08,0,0,0-1.53-1.53L43.62,4.85,42.21,3.44a1.08,1.08,0,0,0-1.53,0l-0.23.23-0.24-.24a1.08,1.08,0,0,0-1.53,0L33.28,8.82a1.08,1.08,0,0,0,0,1.53l0.42,0.42L33,11.49,31,9.55a1.08,1.08,0,0,0-1.53,0l-5.13,5.13a1.08,1.08,0,0,0,0,1.53l9.41,9.41a1.08,1.08,0,0,0,1.53,0l5.13-5.13a1.08,1.08,0,0,0,0-1.53L38.5,17l0.73-.73,0.42,0.42a1.08,1.08,0,0,0,1.53,0l5.39-5.39a1.08,1.08,0,0,0,0-1.53l-0.24-.24,0.23-.23a1.08,1.08,0,0,0,.3-1l2.29-2.29A2.92,2.92,0,0,0,50,4ZM37.07,20.31a0.83,0.83,0,0,1-1.18,0l-6.2-6.2a0.83,0.83,0,1,1,1.18-1.18l6.2,6.2A0.84,0.84,0,0,1,37.07,20.31Zm4.16-5.63a0.54,0.54,0,0,1-.76,0L35.33,9.54a0.54,0.54,0,0,1,.77-0.77l5.13,5.13A0.54,0.54,0,0,1,41.23,14.68Zm1.94-1.94a0.54,0.54,0,0,1-.77,0L37.27,7.6A0.54,0.54,0,0,1,38,6.84L43.17,12A0.54,0.54,0,0,1,43.17,12.73Zm1.89-1.89a0.54,0.54,0,0,1-.77,0L39.17,5.71a0.54,0.54,0,0,1,0-.76,0.52,0.52,0,0,1,.29-0.15,0.54,0.54,0,0,1,.47.15l5.13,5.13A0.55,0.55,0,0,1,45.06,10.84Z" transform="translate(0 0)"/><path class="cls-1" d="M18.56,23.87L16,27l-0.61-.61a1.08,1.08,0,0,0-1.53,1.53l0.75,0.75L13.22,30.3l-0.59-.59a1.08,1.08,0,0,0-1.53,1.53L11.83,32l-1.39,1.67L10,33.16a1.08,1.08,0,0,0-1.53,1.53l0.63,0.63L7.66,37,7.27,36.6a1.08,1.08,0,1,0-1.53,1.53l0.53,0.53-0.5.6a2.44,2.44,0,0,0-.39,2.59L4.14,43.1A1.08,1.08,0,0,0,4,44.46l-0.8.8a1.08,1.08,0,0,0-1.36.14L0.31,46.93a1.08,1.08,0,0,0,0,1.53l1.22,1.22a1.08,1.08,0,0,0,1.53,0L4.6,48.15a1.08,1.08,0,0,0,.14-1.36L5.53,46a1.08,1.08,0,0,0,1.36-.14L8.15,44.6a2.44,2.44,0,0,0,2.59-.39l0.6-.5,0.53,0.53a1.08,1.08,0,0,0,1.53-1.53L13,42.33l1.67-1.39,0.63,0.63A1.08,1.08,0,1,0,16.84,40l-0.49-.49L18,38.16l0.73,0.73a1.08,1.08,0,1,0,1.53-1.53l-0.59-.59,1.67-1.39,0.75,0.75a1.08,1.08,0,0,0,1.53-1.53L23,34l3.09-2.57Z" transform="translate(0 0)"/><rect class="cls-1" height="15.47" rx="1.08" ry="1.08" transform="translate(-9.68 25.38) rotate(-45.01)" width="6.17" x="22.7" y="16.64"/></svg>