<?xml version="1.0" ?><svg data-name="Layer 1" id="Layer_1" viewBox="0 0 50 50" xmlns="http://www.w3.org/2000/svg"><defs><style>.cls-1{fill:#a6b1b7;}</style></defs><title/><path class="cls-1" d="M36,20.1H35.24l1.89-1.89-9.55,0a3.79,3.79,0,0,1-1-.14l-2,2H20a1.89,1.89,0,1,0,0,3.79l15.94,0A1.89,1.89,0,1,0,36,20.1Z" transform="translate(0 0)"/><path class="cls-1" d="M28.41,27.67H27.68l1.89-1.89-9.55,0a3.79,3.79,0,0,1-1-.14l-2,2H12.81a1.89,1.89,0,0,0-1.69.52L9.77,29.49a1.89,1.89,0,0,0,0,2.68l8,8.06a1.89,1.89,0,0,0,2.68,0l1.35-1.33a1.89,1.89,0,0,0,0-2.68l-1.34-1.35L22,33.34H18.94l-1.89-1.9,11.35,0A1.89,1.89,0,1,0,28.41,27.67Z" transform="translate(0 0)"/><path class="cls-1" d="M4.75,40.53a4.74,4.74,0,1,0,4.72,4.7l6-4.63L9.4,34.5ZM6.08,46.6a1.89,1.89,0,1,1,0-2.68A1.89,1.89,0,0,1,6.08,46.6Z" transform="translate(0 0)"/><path class="cls-1" d="M48.61,8.09a4.74,4.74,0,1,0-8-2.31L38.42,3.54a1.89,1.89,0,0,0-2.68,0L33.05,6.21a1.9,1.9,0,0,0,0,2.68l1.34,1.35-2.28,2.28H27.6a1.89,1.89,0,1,0,0,3.79l12.85,0,0.62,0.62a1.9,1.9,0,0,0,2.68,0l2.69-2.67a1.89,1.89,0,0,0,0-2.68L44.2,9.35A4.74,4.74,0,0,0,48.61,8.09Zm-4.69-2a1.89,1.89,0,1,1,2.68,0A1.89,1.89,0,0,1,43.92,6.08Z" transform="translate(0 0)"/></svg>