<?xml version="1.0" ?><svg data-name="Layer 1" id="Layer_1" viewBox="0 0 50 50" xmlns="http://www.w3.org/2000/svg"><defs><style>.cls-1{fill:#a6b1b7;}</style></defs><title/><path class="cls-1" d="M48.8,25c0-1.88,1.19-2.27,1.2-2.27,0-.55-0.12-1.11-0.2-1.66s-0.19-1.1-.31-1.64a1.42,1.42,0,0,1-.72-0.2,2.6,2.6,0,0,1-1.13-1.59,2.6,2.6,0,0,1,0-1.93,1.55,1.55,0,0,1,.46-0.6c-0.22-.51-0.46-1-0.71-1.51s-0.52-1-.81-1.46a1.44,1.44,0,0,1-.74,0A2.6,2.6,0,0,1,44.25,11a2.6,2.6,0,0,1-.61-1.83,1.55,1.55,0,0,1,.25-0.71C43.53,8,43.14,7.65,42.75,7.25s-0.8-.78-1.22-1.14a1.44,1.44,0,0,1-.69.26A2.6,2.6,0,0,1,39,5.75a2.6,2.6,0,0,1-1.14-1.55,1.53,1.53,0,0,1,0-.75c-0.48-.29-1-0.55-1.46-0.81s-1-.49-1.51-0.71a1.43,1.43,0,0,1-.58.46,2.6,2.6,0,0,1-1.95,0,2.61,2.61,0,0,1-1.57-1.12A1.54,1.54,0,0,1,30.57.52C30,0.39,29.48.29,28.93,0.2S27.82,0,27.27,0c0,0-.32,1.23-2.27,1.2S22.73,0,22.73,0c-0.56,0-1.11.12-1.66,0.2S20,0.39,19.43.52a1.42,1.42,0,0,1-.2.72,2.6,2.6,0,0,1-1.59,1.13,2.6,2.6,0,0,1-1.93,0,1.58,1.58,0,0,1-.6-0.46c-0.51.22-1,.46-1.51,0.71s-1,.52-1.46.81a1.42,1.42,0,0,1,0,.74A2.59,2.59,0,0,1,11,5.75a2.6,2.6,0,0,1-1.83.61,1.59,1.59,0,0,1-.71-0.25C8,6.47,7.65,6.86,7.25,7.25S6.47,8,6.11,8.47a1.46,1.46,0,0,1,.26.7A2.59,2.59,0,0,1,5.75,11a2.6,2.6,0,0,1-1.55,1.14,1.6,1.6,0,0,1-.75,0c-0.29.47-.55,1-0.81,1.46s-0.49,1-.71,1.51a1.43,1.43,0,0,1,.46.58,2.6,2.6,0,0,1,0,2,2.59,2.59,0,0,1-1.12,1.57,1.53,1.53,0,0,1-.72.22C0.4,20,.29,20.52.2,21.07S0,22.18,0,22.73c0,0,1.23.32,1.2,2.27S0,27.27,0,27.27c0,0.55.12,1.11,0.2,1.66S0.4,30,.52,30.57a1.42,1.42,0,0,1,.72.2,2.6,2.6,0,0,1,1.13,1.59,2.61,2.61,0,0,1,0,1.93,1.52,1.52,0,0,1-.46.6c0.22,0.51.46,1,.71,1.51s0.52,1,.81,1.46a1.45,1.45,0,0,1,.74,0A2.6,2.6,0,0,1,5.75,39a2.6,2.6,0,0,1,.61,1.83,1.55,1.55,0,0,1-.25.71c0.37,0.42.75,0.82,1.14,1.22S8,43.53,8.47,43.89a1.42,1.42,0,0,1,.7-0.26,2.6,2.6,0,0,1,1.85.63,2.59,2.59,0,0,1,1.14,1.55,1.53,1.53,0,0,1,0,.75c0.48,0.29,1,.55,1.46.81s1,0.49,1.51.71a1.42,1.42,0,0,1,.58-0.46,2.6,2.6,0,0,1,1.95,0,2.61,2.61,0,0,1,1.57,1.12,1.56,1.56,0,0,1,.22.72q0.82,0.18,1.64.31c0.55,0.08,1.1.16,1.66,0.2,0,0,.32-1.23,2.27-1.2S27.27,50,27.27,50c0.55,0,1.11-.12,1.66-0.2s1.1-.19,1.64-0.31a1.4,1.4,0,0,1,.2-0.72,2.6,2.6,0,0,1,1.59-1.13,2.6,2.6,0,0,1,1.93,0,1.55,1.55,0,0,1,.6.46c0.51-.22,1-0.46,1.51-0.71s1-.52,1.46-0.81a1.42,1.42,0,0,1,0-.74,3.23,3.23,0,0,1,3-2.18,1.55,1.55,0,0,1,.71.25c0.42-.37.82-0.75,1.22-1.14s0.78-.8,1.14-1.22a1.42,1.42,0,0,1-.26-0.69,3.23,3.23,0,0,1,2.18-3,1.56,1.56,0,0,1,.75,0c0.29-.48.55-1,0.81-1.46s0.49-1,.71-1.51a1.41,1.41,0,0,1-.46-0.58,2.6,2.6,0,0,1,0-2,2.59,2.59,0,0,1,1.12-1.57,1.53,1.53,0,0,1,.72-0.22q0.18-.82.31-1.64c0.08-.55.16-1.1,0.2-1.66C50,27.27,48.77,26.95,48.8,25ZM38,36.71A17.5,17.5,0,1,1,36.71,12,17.5,17.5,0,0,1,38,36.71Z"/><path class="cls-1" d="M25,8.67A16.33,16.33,0,1,0,41.33,25,16.35,16.35,0,0,0,25,8.67Zm7.08,3L27.46,18.8a6.57,6.57,0,0,0-1.16-.34V10A14.91,14.91,0,0,1,32.08,11.69ZM25,27.5A2.5,2.5,0,1,1,27.5,25,2.5,2.5,0,0,1,25,27.5ZM23.69,10v8.48a6.48,6.48,0,0,0-.83.22l-4.24-7.35A14.94,14.94,0,0,1,23.69,10Zm-7.33,2.67L20.6,20a6.81,6.81,0,0,0-.83.87L12.21,17A15.22,15.22,0,0,1,16.36,12.65ZM9.92,25A15,15,0,0,1,11,19.34l7.56,3.85a6.58,6.58,0,0,0-.22,1.19l-8.44.89C9.92,25.18,9.92,25.09,9.92,25Zm0.28,2.87L18.63,27a6.72,6.72,0,0,0,.46,1.11L12.5,33.44A15,15,0,0,1,10.2,27.87Zm4,7.59,6.59-5.33a6.88,6.88,0,0,0,1,.68l-2.62,8.07A15.15,15.15,0,0,1,14.15,35.46ZM25,40.08a15.12,15.12,0,0,1-3.4-.39l2.62-8.07a6.8,6.8,0,0,0,.78,0l0.43,0,2.2,8.2A15.11,15.11,0,0,1,25,40.08Zm5.15-.91L28,31a6.65,6.65,0,0,0,1-.63L35.29,36A15.13,15.13,0,0,1,30.15,39.18ZM37,34.08l-6.3-5.68a6.54,6.54,0,0,0,.52-1.09l8.38,1.33A15,15,0,0,1,37,34.08Zm3-9.08c0,0.36,0,.71,0,1.06l-8.38-1.33a6.68,6.68,0,0,0-.16-1.19l7.75-3.45A15,15,0,0,1,40.08,25Zm-9.64-3.85a6.62,6.62,0,0,0-.78-0.92l4.62-7.11a15.17,15.17,0,0,1,3.91,4.58Z"/></svg>